<svg width="13" height="22" viewBox="0 0 13 22" fill="none" xmlns="http://www.w3.org/2000/svg">
<path d="M11.756 0.31543H1.25851C1.04171 0.31543 0.865723 0.551094 0.865723 0.84187V20.5585C0.865416 20.9535 1.03005 21.3155 1.29211 21.496C1.55432 21.6764 1.86978 21.6449 2.10898 21.4144L6.50725 17.1887L10.9057 21.4142C11.145 21.6443 11.4602 21.6756 11.7222 21.4952C11.9841 21.3149 12.1489 20.9531 12.1489 20.5585V0.84187C12.1489 0.551094 11.9729 0.31543 11.756 0.31543ZM11.3632 20.5583L6.73632 16.113C6.59946 15.9816 6.41534 15.9816 6.27863 16.113L1.6516 20.5585V1.36831H11.3632V20.5583Z" fill="white"/>
</svg>
