<svg width="20" height="26" viewBox="0 0 20 26" fill="none" xmlns="http://www.w3.org/2000/svg">
<path d="M9.07874 0.361633C4.51244 0.361633 0.797241 5.34102 0.797241 11.4611C0.797241 17.5815 4.51244 22.5606 9.07874 22.5606C13.6453 22.5606 17.3602 17.5815 17.3602 11.4611C17.3602 5.34102 13.6453 0.361633 9.07874 0.361633ZM9.07874 20.5115C5.35538 20.5115 2.32613 16.4515 2.32613 11.4612C2.32613 6.47084 5.35538 2.41077 9.07874 2.41077C12.8021 2.41077 15.8313 6.47079 15.8313 11.4611C15.8313 16.4514 12.8021 20.5115 9.07874 20.5115Z" fill="#AEAEAE"/>
<path d="M19.3788 23.8171L14.9959 17.9429C14.6972 17.5426 14.2136 17.5426 13.9149 17.9429C13.6163 18.3428 13.6163 18.9917 13.9149 19.3916L18.2978 25.2658C18.4471 25.4659 18.6426 25.566 18.8383 25.566C19.0338 25.566 19.2294 25.4659 19.3788 25.2658C19.6774 24.8659 19.6774 24.217 19.3788 23.8171Z" fill="#AEAEAE"/>
</svg>
